<svg
        xmlns="http://www.w3.org/2000/svg"
        viewBox="0 0 60 60"
>
    <g>
        <path fill="current" stroke-opacity=".1"  stroke="current" stroke-linejoin="round" stroke-width="1.2" d="M48,35.4c0-4.6-3.7-8.2-8.2-8.2c-1,0-1.9,0.2-2.8,0.5c-0.3-3.4-3.1-6.2-6.6-6.2c-3.7,0-6.7,3-6.7,6.7c0,0.8,0.2,1.6,0.4,2.3    c-0.3-0.1-0.7-0.1-1-0.1c-3.7,0-6.7,3-6.7,6.7c0,3.6,2.9,6.6,6.5,6.7l17.2,0C44.2,43.3,47.7,39.8,47.7,35.4z" />
    </g>
    <line fill="none" stroke="current" stroke-opacity=".6"  stroke-linecap="round" stroke-width="2" x1="31" x2="33" y1="47" y2="54" />
</svg>