<svg xmlns="http://www.w3.org/2000/svg" viewBox="0 0 60 60">
     <path fill="current" stroke-opacity=".1" transform="translate(0,-10)"  stroke="current" stroke-linejoin="round" stroke-width="1.2" d="M47.7,35.4c0-4.6-3.7-8.2-8.2-8.2c-1,0-1.9,0.2-2.8,0.5c-0.3-3.4-3.1-6.2-6.6-6.2c-3.7,0-6.7,3-6.7,6.7c0,0.8,0.2,1.6,0.4,2.3    c-0.3-0.1-0.7-0.1-1-0.1c-3.7,0-6.7,3-6.7,6.7c0,3.6,2.9,6.6,6.5,6.7l17.2,0C44.2,43.3,47.7,39.8,47.7,35.4z" />
     <line  fill="none" stroke="current" stroke-opacity=".6" stroke-dasharray="0.1,7" stroke-linecap="round" stroke-width="3"  x1="26" x2="28" y1="37" y2="47" />
     <line  fill="none" stroke="current" stroke-opacity=".6" stroke-dasharray="0.1,7" stroke-linecap="round" stroke-width="3"  x1="32" x2="34" y1="37" y2="47" />
     <line  fill="none" stroke="current" stroke-opacity=".6" stroke-dasharray="0.1,7" stroke-linecap="round" stroke-width="3"  x1="38" x2="40" y1="37" y2="47" />
</svg>